<?xml version="1.0" encoding="utf-8"?>
<!-- Generator: Adobe Illustrator 16.0.0, SVG Export Plug-In . SVG Version: 6.00 Build 0)  -->
<!DOCTYPE svg PUBLIC "-//W3C//DTD SVG 1.1//EN" "http://www.w3.org/Graphics/SVG/1.1/DTD/svg11.dtd">
<svg version="1.1" id="Layer_1" xmlns="http://www.w3.org/2000/svg" xmlns:xlink="http://www.w3.org/1999/xlink" x="0px" y="0px"
	 width="280.853px" height="57.956px" viewBox="0 0 280.853 57.956" enable-background="new 0 0 280.853 57.956"
	 xml:space="preserve">
<g>
	<path fill="#373737" d="M64.386,32.666c0,3.674-1.392,6.568-4.175,8.684s-6.655,3.173-11.616,3.173
		c-4.57,0-8.613-0.816-12.129-2.449v-8.016c2.89,1.225,5.336,2.087,7.339,2.588c2.002,0.501,3.833,0.751,5.493,0.751
		c1.992,0,3.52-0.362,4.585-1.085c1.064-0.724,1.597-1.799,1.597-3.229c0-0.797-0.234-1.507-0.703-2.129
		c-0.469-0.621-1.157-1.22-2.065-1.795c-0.908-0.575-2.759-1.493-5.552-2.755c-2.618-1.169-4.581-2.292-5.889-3.368
		c-1.309-1.076-2.354-2.328-3.135-3.757c-0.781-1.429-1.172-3.099-1.172-5.01c0-3.6,1.284-6.429,3.853-8.489
		c2.568-2.06,6.118-3.089,10.649-3.089c2.227,0,4.351,0.25,6.372,0.751s4.135,1.207,6.343,2.115l-2.93,6.708
		c-2.285-0.891-4.175-1.512-5.669-1.865c-1.494-0.352-2.964-0.529-4.409-0.529c-1.719,0-3.037,0.38-3.955,1.141
		c-0.918,0.761-1.377,1.753-1.377,2.978c0,0.761,0.186,1.424,0.557,1.99c0.371,0.566,0.962,1.113,1.772,1.643
		c0.81,0.528,2.729,1.479,5.757,2.853c4.003,1.819,6.748,3.642,8.232,5.469C63.644,27.772,64.386,30.013,64.386,32.666z"/>
	<path fill="#373737" d="M83.038,37.759c1.563,0,3.438-0.324,5.625-0.974v6.318c-2.227,0.946-4.961,1.419-8.203,1.419
		c-3.574,0-6.177-0.858-7.808-2.574c-1.631-1.716-2.446-4.291-2.446-7.724V19.223h-4.277v-3.59l4.922-2.839l2.578-6.568h5.713v6.624
		h9.17v6.374h-9.17v15.001c0,1.207,0.356,2.097,1.069,2.672C80.923,37.472,81.866,37.759,83.038,37.759z"/>
	<path fill="#373737" d="M90.71,12.85h9.785l6.182,17.506c0.527,1.521,0.889,3.322,1.084,5.399h0.176
		c0.215-1.911,0.634-3.711,1.26-5.399l6.064-17.506h9.58l-13.857,35.096c-1.27,3.247-3.081,5.678-5.435,7.292
		c-2.354,1.614-5.103,2.421-8.247,2.421c-1.543,0-3.057-0.158-4.541-0.473v-6.735c1.074,0.241,2.246,0.362,3.516,0.362
		c1.582,0,2.963-0.459,4.146-1.378c1.182-0.918,2.104-2.306,2.769-4.161l0.527-1.531L90.71,12.85z"/>
	<path fill="#373737" d="M137.282,43.966h-8.936V0.659h8.936V43.966z"/>
	<path fill="#373737" d="M144.338,4.806c0-2.765,1.621-4.147,4.863-4.147c3.242,0,4.863,1.382,4.863,4.147
		c0,1.318-0.406,2.343-1.216,3.076c-0.811,0.733-2.026,1.099-3.647,1.099C145.959,8.981,144.338,7.589,144.338,4.806z
		 M153.655,43.966h-8.936V12.85h8.936V43.966z"/>
	<path fill="#373737" d="M184.477,34.726c0,3.191-1.167,5.622-3.501,7.292c-2.334,1.67-5.826,2.505-10.474,2.505
		c-2.383,0-4.414-0.153-6.094-0.459c-1.68-0.307-3.252-0.756-4.717-1.35V35.7c1.66,0.742,3.53,1.364,5.61,1.865
		s3.911,0.751,5.493,0.751c3.242,0,4.863-0.891,4.863-2.672c0-0.668-0.215-1.21-0.645-1.628c-0.43-0.417-1.172-0.891-2.227-1.419
		c-1.055-0.529-2.461-1.146-4.219-1.851c-2.52-1.002-4.37-1.93-5.552-2.783c-1.182-0.853-2.041-1.832-2.578-2.936
		c-0.538-1.104-0.806-2.463-0.806-4.078c0-2.765,1.128-4.903,3.384-6.416c2.256-1.512,5.454-2.268,9.595-2.268
		c3.945,0,7.783,0.817,11.514,2.449l-2.695,6.123c-1.641-0.668-3.174-1.215-4.6-1.642c-1.426-0.427-2.881-0.64-4.365-0.64
		c-2.637,0-3.955,0.678-3.955,2.032c0,0.761,0.425,1.419,1.274,1.976s2.71,1.382,5.581,2.477c2.559,0.984,4.434,1.902,5.625,2.755
		c1.191,0.854,2.07,1.837,2.637,2.95C184.194,31.859,184.477,33.186,184.477,34.726z"/>
	<path fill="#373737" d="M220.148,43.966h-8.936V25.792c0-4.49-1.758-6.735-5.273-6.735c-2.5,0-4.307,0.807-5.42,2.421
		s-1.67,4.23-1.67,7.849v14.64h-8.936V0.659h8.936v8.823c0,0.687-0.068,2.301-0.205,4.843l-0.205,2.505h0.469
		c1.992-3.043,5.156-4.564,9.492-4.564c3.848,0,6.768,0.984,8.76,2.95c1.992,1.967,2.988,4.787,2.988,8.461V43.966z"/>
</g>
<g>
	<path fill="#DD3501" d="M34.21,45.32H23.65L0,22.715L23.65,0h10.56L10.56,22.715L34.21,45.32z"/>
</g>
<g>
	<path fill="#DD3501" d="M244.528,0l-15.477,57.849h-7.833L236.695,0H244.528z"/>
</g>
<g>
	<path fill="#DD3501" d="M280.853,22.715l-23.65,22.605h-10.561l23.65-22.605L246.642,0h10.561L280.853,22.715z"/>
</g>
<g>
	<path fill="#DD3501" d="M114.19,47.849h7.296v1.129h-5.611v2.922h5.088v1.129h-5.088v4.735h-1.685V47.849z"/>
	<path fill="#DD3501" d="M130.177,53.082c0.432,0.088,0.8,0.256,1.104,0.501s0.684,0.736,1.137,1.471l1.685,2.709h-1.801
		l-1.478-2.503c-0.426-0.713-0.81-1.172-1.149-1.378c-0.341-0.206-0.785-0.309-1.333-0.309h-1.602v4.19h-1.685v-9.915h3.453
		c1.361,0,2.404,0.246,3.129,0.737c0.725,0.491,1.087,1.202,1.087,2.131c0,0.655-0.223,1.19-0.668,1.604
		C131.611,52.735,130.985,52.989,130.177,53.082z M126.74,48.951v3.52h1.834c0.802,0,1.4-0.144,1.793-0.432s0.589-0.729,0.589-1.322
		c0-0.571-0.209-1.008-0.627-1.312c-0.417-0.303-1.025-0.455-1.822-0.455H126.74z"/>
	<path fill="#DD3501" d="M140.531,47.849h2.034l3.793,9.915h-1.735l-0.913-2.583h-4.341l-0.896,2.583h-1.735L140.531,47.849z
		 M141.543,49.031l-1.768,5.073h3.536L141.543,49.031z"/>
	<path fill="#DD3501" d="M149.348,47.849h2.241l2.142,5.047l2.158-5.047h2.25v9.915h-1.552v-8.759l-2.208,5.226h-1.27l-2.216-5.226
		v8.759h-1.544V47.849z"/>
	<path fill="#DD3501" d="M162.104,47.849h7.354v1.129h-5.678v2.935h5.429v1.129h-5.429v3.593h5.835v1.129h-7.512V47.849z"/>
	<path fill="#DD3501" d="M172.551,47.849h1.635l1.187,8.048l1.411-5.326h1.751l1.428,5.339l1.187-8.062h1.635l-1.851,9.915h-1.585
		l-1.685-5.89l-1.677,5.89h-1.585L172.551,47.849z"/>
	<path fill="#DD3501" d="M193.692,52.816c0,1.727-0.342,3.015-1.025,3.865c-0.683,0.85-1.725,1.275-3.125,1.275
		s-2.44-0.422-3.121-1.268s-1.021-2.136-1.021-3.872c0-1.731,0.342-3.021,1.025-3.872c0.684-0.85,1.723-1.275,3.117-1.275
		c1.4,0,2.442,0.425,3.125,1.275C193.35,49.794,193.692,51.085,193.692,52.816z M191.94,52.816c0-1.457-0.187-2.497-0.56-3.121
		c-0.374-0.624-0.987-0.937-1.839-0.937c-0.847,0-1.457,0.313-1.83,0.937c-0.374,0.624-0.561,1.665-0.561,3.121
		c0,1.452,0.187,2.49,0.561,3.114c0.373,0.625,0.983,0.937,1.83,0.937c0.852,0,1.465-0.311,1.839-0.933
		C191.753,55.312,191.94,54.272,191.94,52.816z"/>
	<path fill="#DD3501" d="M202.507,53.082c0.432,0.088,0.8,0.256,1.104,0.501c0.305,0.246,0.684,0.736,1.138,1.471l1.685,2.709
		h-1.801l-1.478-2.503c-0.427-0.713-0.81-1.172-1.149-1.378c-0.341-0.206-0.785-0.309-1.332-0.309h-1.603v4.19h-1.685v-9.915h3.453
		c1.361,0,2.404,0.246,3.129,0.737c0.725,0.491,1.088,1.202,1.088,2.131c0,0.655-0.223,1.19-0.669,1.604
		C203.941,52.735,203.315,52.989,202.507,53.082z M199.07,48.951v3.52h1.835c0.802,0,1.399-0.144,1.793-0.432
		c0.393-0.288,0.589-0.729,0.589-1.322c0-0.571-0.209-1.008-0.627-1.312c-0.417-0.303-1.024-0.455-1.821-0.455H199.07z"/>
	<path fill="#DD3501" d="M209.486,47.849h1.685v4.41l5.238-4.41h1.967l-4.822,4.051l4.964,5.864h-2.025l-4.042-4.967l-1.279,1.089
		v3.878h-1.685V47.849z"/>
</g>
</svg>
