<svg xmlns="http://www.w3.org/2000/svg" width="280.853" height="57.956" viewBox="0 0 280.853 57.956"><g fill="#373737"><path d="M64.386 32.666c0 3.674-1.392 6.568-4.175 8.684s-6.655 3.173-11.616 3.173c-4.57 0-8.613-.816-12.129-2.449v-8.016c2.89 1.225 5.336 2.087 7.339 2.588 2.002.501 3.833.751 5.493.751 1.992 0 3.52-.362 4.585-1.085 1.064-.724 1.597-1.799 1.597-3.229 0-.797-.234-1.507-.703-2.129-.469-.621-1.157-1.22-2.065-1.795-.908-.575-2.759-1.493-5.552-2.755-2.618-1.169-4.581-2.292-5.889-3.368a12.754 12.754 0 0 1-3.135-3.757c-.781-1.429-1.172-3.099-1.172-5.01 0-3.6 1.284-6.429 3.853-8.489 2.568-2.06 6.118-3.089 10.649-3.089 2.227 0 4.351.25 6.372.751s4.135 1.207 6.343 2.115l-2.93 6.708c-2.285-.891-4.175-1.512-5.669-1.865a19.187 19.187 0 0 0-4.409-.529c-1.719 0-3.037.38-3.955 1.141-.918.761-1.377 1.753-1.377 2.978 0 .761.186 1.424.557 1.99.371.566.962 1.113 1.772 1.643.81.528 2.729 1.479 5.757 2.853 4.003 1.819 6.748 3.642 8.232 5.469 1.485 1.827 2.227 4.068 2.227 6.721zM83.038 37.759c1.563 0 3.438-.324 5.625-.974v6.318c-2.227.946-4.961 1.419-8.203 1.419-3.574 0-6.177-.858-7.808-2.574-1.631-1.716-2.446-4.291-2.446-7.724V19.223h-4.277v-3.59l4.922-2.839 2.578-6.568h5.713v6.624h9.17v6.374h-9.17v15.001c0 1.207.356 2.097 1.069 2.672.712.575 1.655.862 2.827.862zM90.71 12.85h9.785l6.182 17.506c.527 1.521.889 3.322 1.084 5.399h.176a22.8 22.8 0 0 1 1.26-5.399l6.064-17.506h9.58l-13.857 35.096c-1.27 3.247-3.081 5.678-5.435 7.292-2.354 1.614-5.103 2.421-8.247 2.421-1.543 0-3.057-.158-4.541-.473v-6.735c1.074.241 2.246.362 3.516.362 1.582 0 2.963-.459 4.146-1.378 1.182-.918 2.104-2.306 2.769-4.161l.527-1.531L90.71 12.85zM137.282 43.966h-8.936V.659h8.936v43.307zM144.338 4.806c0-2.765 1.621-4.147 4.863-4.147 3.242 0 4.863 1.382 4.863 4.147 0 1.318-.406 2.343-1.216 3.076-.811.733-2.026 1.099-3.647 1.099-3.242 0-4.863-1.392-4.863-4.175zm9.317 39.16h-8.936V12.85h8.936v31.116zM184.477 34.726c0 3.191-1.167 5.622-3.501 7.292-2.334 1.67-5.826 2.505-10.474 2.505-2.383 0-4.414-.153-6.094-.459a24 24 0 0 1-4.717-1.35V35.7c1.66.742 3.53 1.364 5.61 1.865s3.911.751 5.493.751c3.242 0 4.863-.891 4.863-2.672 0-.668-.215-1.21-.645-1.628-.43-.417-1.172-.891-2.227-1.419-1.055-.529-2.461-1.146-4.219-1.851-2.52-1.002-4.37-1.93-5.552-2.783-1.182-.853-2.041-1.832-2.578-2.936-.538-1.104-.806-2.463-.806-4.078 0-2.765 1.128-4.903 3.384-6.416 2.256-1.512 5.454-2.268 9.595-2.268 3.945 0 7.783.817 11.514 2.449l-2.695 6.123a51.337 51.337 0 0 0-4.6-1.642 15.137 15.137 0 0 0-4.365-.64c-2.637 0-3.955.678-3.955 2.032 0 .761.425 1.419 1.274 1.976s2.71 1.382 5.581 2.477c2.559.984 4.434 1.902 5.625 2.755 1.191.854 2.07 1.837 2.637 2.95.569 1.114.852 2.441.852 3.981zM220.148 43.966h-8.936V25.792c0-4.49-1.758-6.735-5.273-6.735-2.5 0-4.307.807-5.42 2.421s-1.67 4.23-1.67 7.849v14.64h-8.936V.659h8.936v8.823c0 .687-.068 2.301-.205 4.843l-.205 2.505h.469c1.992-3.043 5.156-4.564 9.492-4.564 3.848 0 6.768.984 8.76 2.95 1.992 1.967 2.988 4.787 2.988 8.461v20.289z"/></g><path fill="#DD3501" d="M34.21 45.32H23.65L0 22.715 23.65 0h10.56L10.56 22.715 34.21 45.32zM244.528 0l-15.477 57.849h-7.833L236.695 0h7.833zM280.853 22.715l-23.65 22.605h-10.561l23.65-22.605L246.642 0h10.561l23.65 22.715z"/><g fill="#DD3501"><path d="M114.19 47.849h7.296v1.129h-5.611V51.9h5.088v1.129h-5.088v4.735h-1.685v-9.915zM130.177 53.082c.432.088.8.256 1.104.501s.684.736 1.137 1.471l1.685 2.709h-1.801l-1.478-2.503c-.426-.713-.81-1.172-1.149-1.378-.341-.206-.785-.309-1.333-.309h-1.602v4.19h-1.685v-9.915h3.453c1.361 0 2.404.246 3.129.737.725.491 1.087 1.202 1.087 2.131 0 .655-.223 1.19-.668 1.604-.445.415-1.071.669-1.879.762zm-3.437-4.131v3.52h1.834c.802 0 1.4-.144 1.793-.432s.589-.729.589-1.322c0-.571-.209-1.008-.627-1.312-.417-.303-1.025-.455-1.822-.455h-1.767zM140.531 47.849h2.034l3.793 9.915h-1.735l-.913-2.583h-4.341l-.896 2.583h-1.735l3.793-9.915zm1.012 1.182l-1.768 5.073h3.536l-1.768-5.073zM149.348 47.849h2.241l2.142 5.047 2.158-5.047h2.25v9.915h-1.552v-8.759l-2.208 5.226h-1.27l-2.216-5.226v8.759h-1.544v-9.915zM162.104 47.849h7.354v1.129h-5.678v2.935h5.429v1.129h-5.429v3.593h5.835v1.129h-7.512v-9.915zM172.551 47.849h1.635l1.187 8.048 1.411-5.326h1.751l1.428 5.339 1.187-8.062h1.635l-1.851 9.915h-1.585l-1.685-5.89-1.677 5.89h-1.585l-1.851-9.914zM193.692 52.816c0 1.727-.342 3.015-1.025 3.865-.683.85-1.725 1.275-3.125 1.275s-2.44-.422-3.121-1.268-1.021-2.136-1.021-3.872c0-1.731.342-3.021 1.025-3.872.684-.85 1.723-1.275 3.117-1.275 1.4 0 2.442.425 3.125 1.275.683.85 1.025 2.141 1.025 3.872zm-1.752 0c0-1.457-.187-2.497-.56-3.121-.374-.624-.987-.937-1.839-.937-.847 0-1.457.313-1.83.937-.374.624-.561 1.665-.561 3.121 0 1.452.187 2.49.561 3.114.373.625.983.937 1.83.937.852 0 1.465-.311 1.839-.933.373-.622.56-1.662.56-3.118zM202.507 53.082c.432.088.8.256 1.104.501.305.246.684.736 1.138 1.471l1.685 2.709h-1.801l-1.478-2.503c-.427-.713-.81-1.172-1.149-1.378-.341-.206-.785-.309-1.332-.309h-1.603v4.19h-1.685v-9.915h3.453c1.361 0 2.404.246 3.129.737.725.491 1.088 1.202 1.088 2.131 0 .655-.223 1.19-.669 1.604-.446.415-1.072.669-1.88.762zm-3.437-4.131v3.52h1.835c.802 0 1.399-.144 1.793-.432.393-.288.589-.729.589-1.322 0-.571-.209-1.008-.627-1.312-.417-.303-1.024-.455-1.821-.455h-1.769zM209.486 47.849h1.685v4.41l5.238-4.41h1.967l-4.822 4.051 4.964 5.864h-2.025l-4.042-4.967-1.279 1.089v3.878h-1.685v-9.915z"/></g></svg>