<svg xmlns="http://www.w3.org/2000/svg" width="280.853" height="57.956" viewBox="0 0 280.853 57.956"><g fill="#373737"><path d="M64.386 32.666c0 3.674-1.392 6.568-4.175 8.684s-6.654 3.173-11.615 3.173c-4.57 0-8.613-.816-12.13-2.45V34.06c2.89 1.225 5.337 2.087 7.34 2.588 2.002.5 3.833.75 5.493.75 1.992 0 3.52-.36 4.585-1.084 1.064-.724 1.597-1.8 1.597-3.23 0-.796-.234-1.506-.703-2.128-.47-.62-1.157-1.22-2.065-1.795-.908-.576-2.76-1.494-5.552-2.756-2.618-1.17-4.58-2.292-5.89-3.368-1.308-1.076-2.353-2.328-3.134-3.757-.78-1.43-1.172-3.1-1.172-5.01 0-3.6 1.284-6.43 3.853-8.49 2.568-2.06 6.118-3.09 10.65-3.09 2.226 0 4.35.25 6.37.752s4.136 1.207 6.344 2.115l-2.93 6.708c-2.284-.89-4.174-1.512-5.668-1.865-1.494-.352-2.964-.53-4.41-.53-1.718 0-3.036.38-3.954 1.142-.918.76-1.377 1.753-1.377 2.978 0 .76.187 1.424.558 1.99.37.566.962 1.113 1.772 1.643.81.528 2.73 1.48 5.757 2.853 4.003 1.82 6.748 3.642 8.232 5.47 1.484 1.826 2.226 4.067 2.226 6.72zM83.038 37.76c1.563 0 3.438-.325 5.625-.975v6.318c-2.227.946-4.96 1.42-8.203 1.42-3.574 0-6.177-.86-7.808-2.575-1.63-1.716-2.446-4.29-2.446-7.724v-15H65.93v-3.59l4.92-2.84 2.58-6.568h5.712v6.624h9.17v6.374h-9.17v15c0 1.208.356 2.098 1.07 2.673.71.575 1.654.862 2.826.862zM90.71 12.85h9.785l6.182 17.506c.527 1.52.89 3.322 1.084 5.4h.177c.215-1.912.634-3.712 1.26-5.4l6.064-17.506h9.58l-13.856 35.096c-1.27 3.247-3.08 5.678-5.435 7.292-2.355 1.614-5.104 2.42-8.248 2.42-1.543 0-3.057-.157-4.54-.472V50.45c1.073.242 2.245.363 3.515.363 1.582 0 2.963-.46 4.146-1.378 1.182-.918 2.104-2.306 2.77-4.16l.526-1.532L90.71 12.85zM137.282 43.966h-8.936V.66h8.936v43.306zM144.338 4.806c0-2.765 1.62-4.147 4.863-4.147 3.243 0 4.864 1.38 4.864 4.146 0 1.318-.406 2.343-1.216 3.076-.81.733-2.026 1.1-3.647 1.1-3.24 0-4.862-1.393-4.862-4.176zm9.317 39.16h-8.936V12.85h8.935v31.116zM184.477 34.726c0 3.19-1.167 5.622-3.5 7.292-2.335 1.67-5.827 2.505-10.475 2.505-2.383 0-4.414-.153-6.094-.46-1.68-.306-3.252-.755-4.717-1.35V35.7c1.66.742 3.53 1.364 5.61 1.865s3.912.75 5.494.75c3.242 0 4.863-.89 4.863-2.67 0-.67-.215-1.21-.645-1.63-.43-.416-1.172-.89-2.227-1.418-1.055-.53-2.46-1.146-4.22-1.85-2.52-1.003-4.37-1.93-5.55-2.784-1.183-.853-2.042-1.832-2.58-2.936-.537-1.104-.805-2.463-.805-4.078 0-2.766 1.128-4.904 3.384-6.417 2.256-1.512 5.454-2.268 9.595-2.268 3.944 0 7.782.817 11.513 2.45l-2.695 6.122c-1.64-.668-3.174-1.215-4.6-1.642-1.426-.427-2.88-.64-4.365-.64-2.637 0-3.955.678-3.955 2.032 0 .76.425 1.42 1.274 1.976s2.71 1.382 5.58 2.477c2.56.984 4.435 1.902 5.626 2.755 1.19.854 2.07 1.837 2.637 2.95.57 1.114.852 2.44.852 3.98zM220.148 43.966h-8.936V25.792c0-4.49-1.758-6.735-5.273-6.735-2.5 0-4.308.807-5.42 2.42s-1.67 4.23-1.67 7.85v14.64h-8.937V.66h8.936V9.48c0 .687-.07 2.3-.206 4.843l-.205 2.505h.468c1.992-3.043 5.156-4.564 9.492-4.564 3.848 0 6.768.984 8.76 2.95 1.992 1.967 2.988 4.787 2.988 8.46v20.29z"/></g><path fill="#DD3501" d="M34.21 45.32H23.65L0 22.715 23.65 0h10.56L10.56 22.715 34.21 45.32zM244.528 0L229.05 57.85h-7.832L236.695 0h7.833zM280.853 22.715l-23.65 22.605h-10.56l23.65-22.605L246.642 0h10.56l23.65 22.715z"/><g fill="#DD3501"><path d="M114.19 47.85h7.296v1.128h-5.61V51.9h5.087v1.13h-5.088v4.734h-1.685V47.85zM130.177 53.082c.432.088.8.256 1.104.5s.685.737 1.138 1.472l1.685 2.71h-1.8l-1.48-2.504c-.425-.713-.81-1.172-1.148-1.378-.34-.206-.785-.31-1.333-.31h-1.602v4.19h-1.685V47.85h3.453c1.36 0 2.404.246 3.13.737.724.49 1.086 1.202 1.086 2.13 0 .656-.223 1.19-.668 1.605-.445.415-1.07.67-1.88.762zm-3.437-4.13v3.52h1.834c.802 0 1.4-.145 1.793-.433s.59-.73.59-1.323c0-.57-.21-1.008-.628-1.312-.418-.303-1.026-.455-1.823-.455h-1.767zM140.53 47.85h2.035l3.793 9.914h-1.735l-.913-2.583h-4.34l-.897 2.584h-1.735l3.793-9.915zm1.013 1.18l-1.768 5.074h3.536l-1.767-5.073zM149.348 47.85h2.24l2.143 5.046 2.16-5.047h2.25v9.914h-1.553v-8.76l-2.208 5.227h-1.27l-2.217-5.225v8.76h-1.544v-9.916zM162.104 47.85h7.354v1.128h-5.678v2.935h5.43v1.13h-5.43v3.592h5.835v1.13h-7.512v-9.916zM172.55 47.85h1.636l1.187 8.047 1.41-5.326h1.752l1.428 5.34 1.187-8.062h1.635l-1.85 9.915h-1.586l-1.686-5.89-1.677 5.89h-1.585l-1.85-9.914zM193.692 52.816c0 1.727-.342 3.015-1.025 3.865-.683.85-1.725 1.276-3.125 1.276s-2.44-.422-3.12-1.268-1.022-2.136-1.022-3.872c0-1.73.342-3.02 1.025-3.872.684-.85 1.723-1.275 3.117-1.275 1.4 0 2.442.424 3.125 1.274.683.85 1.025 2.14 1.025 3.872zm-1.752 0c0-1.457-.187-2.497-.56-3.12-.374-.625-.987-.938-1.84-.938-.846 0-1.456.313-1.83.937-.373.624-.56 1.665-.56 3.12 0 1.453.187 2.49.56 3.115.374.625.984.937 1.83.937.853 0 1.466-.31 1.84-.933.373-.622.56-1.662.56-3.118zM202.507 53.082c.432.088.8.256 1.104.5.306.247.685.737 1.14 1.472l1.684 2.71h-1.8l-1.48-2.504c-.426-.713-.81-1.172-1.148-1.378-.34-.206-.785-.31-1.332-.31h-1.603v4.19h-1.684V47.85h3.453c1.36 0 2.403.246 3.128.737.725.49 1.088 1.202 1.088 2.13 0 .656-.223 1.19-.67 1.605-.445.415-1.07.67-1.88.762zm-3.437-4.13v3.52h1.835c.802 0 1.4-.145 1.793-.433.393-.29.59-.73.59-1.323 0-.57-.21-1.008-.628-1.312-.417-.303-1.024-.455-1.82-.455h-1.77zM209.486 47.85h1.685v4.41l5.24-4.41h1.966l-4.822 4.05 4.964 5.864h-2.025l-4.042-4.967-1.278 1.09v3.877h-1.685V47.85z"/></g></svg>